<svg width="81" height="81" viewBox="0 0 81 81" fill="none" xmlns="http://www.w3.org/2000/svg">
<path d="M77.9246 50.3434C73.8777 49.3043 67.06 48.1923 64.5443 46.4788C63.5053 45.7679 63.6329 44.984 63.8152 44.4371C63.9975 43.9267 65.0365 43.3981 65.6745 43.4345C67.1147 43.4892 68.5548 43.7991 69.9402 44.1819C73.0209 45.0205 76.0834 45.8955 79.1095 46.8981C80.7136 47.4267 81.224 48.6481 80.2943 49.4319C79.7475 49.8876 79.2371 50.3434 77.9246 50.3434Z" fill="#CD4631"/>
<path d="M14.1224 78.5074C14.3047 77.5413 14.6693 77.0309 15.1979 76.2835C17.2578 73.4033 19.4088 70.5777 21.5234 67.7522C21.651 67.5882 21.7969 67.4059 21.9609 67.2783C22.6901 66.6585 23.5104 65.9293 24.4583 66.6038C25.4062 67.2965 25.0781 68.3173 24.5677 69.1376C22.4531 72.583 20.3021 76.01 18.1146 79.4189C17.7865 79.9475 17.2214 80.4033 16.6562 80.6767C15.2526 81.3512 14.013 80.4215 14.1224 78.5074Z" fill="#CD4631"/>
<path d="M59.6771 77.87C59.6771 78.6903 59.0391 79.2737 58.5652 79.3648C57.9271 79.4924 57.3803 79.383 56.4688 78.7633C56.1589 78.5627 55.9766 78.0705 55.7943 77.6877C54.4636 74.8075 53.1146 71.9455 51.8204 69.0471C51.4922 68.3362 51.1641 67.5158 51.2188 66.7684C51.2735 66.094 51.6928 65.1278 52.2396 64.8908C52.7683 64.6539 53.4792 64.5809 54.3178 65.4013C54.6277 65.6929 54.9193 66.1851 55.1198 66.6408C56.4323 69.6851 57.7448 72.7294 59.0209 75.7919C59.2579 76.3752 59.4037 77.0132 59.6771 77.87Z" fill="#CD4631"/>
<path d="M1.81773 52.7501C0.979191 52.5131 0.432317 52.112 0.304712 51.5652C0.14065 50.8725 0.487004 49.9428 0.888046 49.2865C1.19794 48.7943 1.90888 48.4844 2.51044 48.2839C5.51825 47.2813 8.54429 46.2969 11.5886 45.3672C12.099 45.2032 12.7552 45.1485 13.2474 45.3126C14.0495 45.586 14.3959 46.224 13.7396 46.9896C13.375 47.4271 12.9558 47.8829 12.4636 48.1199C9.61982 49.5417 6.75784 50.9089 3.87763 52.2579C3.34898 52.4949 2.63805 53.0053 1.81773 52.7501Z" fill="#CD4631"/>
<path d="M63.5781 21.4689C63.1771 21.3048 62.8308 20.6485 62.8125 20.211C62.7943 19.6095 62.9766 18.8803 63.3412 18.3881C65.0365 16.0548 66.8229 13.7579 68.5912 11.4793C68.8464 11.1329 69.1927 10.8595 69.5391 10.586C70.3229 9.98448 71.3438 9.45583 72.0365 10.3673C72.4375 10.8959 72.5651 12.2449 72.1823 12.7006C69.849 15.5444 67.3334 18.2605 64.836 20.9767C64.6354 21.2136 64.2344 21.5965 63.5781 21.4689Z" fill="#CD4631"/>
<path d="M5.1354 17.513C6.15624 17.8229 6.94009 18.0052 7.68749 18.2786C9.85676 19.0625 12.026 19.8646 14.1771 20.6849C14.7786 20.9219 15.4167 21.1588 15.9088 21.5416C16.2552 21.8151 16.638 22.5078 16.5104 22.763C16.2917 23.1823 15.9635 23.7109 15.2161 23.6562C14.9062 23.638 14.5052 23.6198 14.1588 23.5286C11.7161 22.8724 9.27343 22.2526 6.84895 21.5234C6.02863 21.2864 5.17186 20.9401 4.51561 20.4114C4.04166 20.0286 3.60415 19.1719 3.73176 18.6614C3.84113 18.1875 4.24217 17.513 5.1354 17.513Z" fill="#CD4631"/>
<path d="M38.4949 9.96599C38.4767 10.1847 38.4584 10.4035 38.3855 10.604C38.0756 11.4972 37.8751 12.4998 36.6173 12.4087C35.2866 12.3175 35.2319 11.2238 35.2501 10.3306C35.3048 8.17953 35.5053 6.02849 35.6694 3.85921C35.7423 3.07536 35.8334 2.27328 36.0522 1.52588C36.2709 0.760257 36.5808 -0.0235974 37.6381 0.104007C38.6225 0.231611 38.9506 0.887861 38.9689 1.76286C38.9689 2.71078 38.6772 8.17953 38.4949 9.96599Z" fill="#CD4631"/>
</svg>
